HIERARCHY
ROOT Hips
{
	OFFSET 0.053599 88.859886 3.107447
	CHANNELS 6 Xposition Yposition Zposition Zrotation Yrotation Xrotation 
	JOINT Spine
	{
		OFFSET -0.000000 8.814246 -2.080107
		CHANNELS 3 Zrotation Yrotation Xrotation
		JOINT Spine1
		{
			OFFSET 0.000000 8.844141 0.000000
			CHANNELS 3 Zrotation Yrotation Xrotation
			JOINT Spine2
			{
				OFFSET -0.000000 11.682268 0.000000
				CHANNELS 3 Zrotation Yrotation Xrotation
				JOINT Spine3
				{
					OFFSET 0.000000 11.746700 0.000000
					CHANNELS 3 Zrotation Yrotation Xrotation
					JOINT Neck
					{
						OFFSET -0.000000 17.658264 -0.000000
						CHANNELS 3 Zrotation Yrotation Xrotation
						JOINT Neck1
						{
							OFFSET -0.000000 5.101515 -0.000000
							CHANNELS 3 Zrotation Yrotation Xrotation
							JOINT Head
							{
								OFFSET 0.000000 5.101515 0.000000
								CHANNELS 3 Zrotation Yrotation Xrotation
								JOINT HeadEnd
								{
									OFFSET 0.000000 11.655085 0.000000
									CHANNELS 3 Zrotation Yrotation Xrotation
									End Site
									{
										OFFSET 0.000000 0.000000 0.000000
									}
								}
							}
						}
					}
					JOINT RightShoulder
					{
						OFFSET -2.625389 11.175210 0.000000
						CHANNELS 3 Zrotation Yrotation Xrotation
						JOINT RightArm
						{
							OFFSET -0.000000 10.434715 -0.000000
							CHANNELS 3 Zrotation Yrotation Xrotation
							JOINT RightForeArm
							{
								OFFSET -0.000000 29.628420 0.000000
								CHANNELS 3 Zrotation Yrotation Xrotation
								JOINT RightHand
								{
									OFFSET -0.000000 22.857611 0.000000
									CHANNELS 3 Zrotation Yrotation Xrotation
									JOINT RightHandThumb1
									{
										OFFSET -2.867323 3.959563 2.944291
										CHANNELS 3 Zrotation Yrotation Xrotation
										JOINT RightHandThumb2
										{
											OFFSET 0.000000 3.350399 0.000000
											CHANNELS 3 Zrotation Yrotation Xrotation
											JOINT RightHandThumb3
											{
												OFFSET 0.000000 3.756509 -0.000000
												CHANNELS 3 Zrotation Yrotation Xrotation
												JOINT RightHandThumb4
												{
													OFFSET 0.000000 3.147345 0.000000
													CHANNELS 3 Zrotation Yrotation Xrotation
													End Site
													{
														OFFSET 0.000000 0.000000 0.000000
													}
												}
											}
										}
									}
									JOINT RightHandIndex1
									{
										OFFSET -0.086752 10.030893 2.345280
										CHANNELS 3 Zrotation Yrotation Xrotation
										JOINT RightHandIndex2
										{
											OFFSET -0.000000 4.061090 0.000000
											CHANNELS 3 Zrotation Yrotation Xrotation
											JOINT RightHandIndex3
											{
												OFFSET -0.000000 3.248873 0.000000
												CHANNELS 3 Zrotation Yrotation Xrotation
												JOINT RightHandIndex4
												{
													OFFSET 0.000000 2.639709 -0.000000
													CHANNELS 3 Zrotation Yrotation Xrotation
													End Site
													{
														OFFSET 0.000000 0.000000 0.000000
													}
												}
											}
										}
									}
									JOINT RightHandMiddle1
									{
										OFFSET 0.104102 9.502952 0.006768
										CHANNELS 3 Zrotation Yrotation Xrotation
										JOINT RightHandMiddle2
										{
											OFFSET 0.000000 4.568727 0.000000
											CHANNELS 3 Zrotation Yrotation Xrotation
											JOINT RightHandMiddle3
											{
												OFFSET 0.000000 3.654981 -0.000000
												CHANNELS 3 Zrotation Yrotation Xrotation
												JOINT RightHandMiddle4
												{
													OFFSET -0.000000 2.741236 -0.000000
													CHANNELS 3 Zrotation Yrotation Xrotation
													End Site
													{
														OFFSET 0.000000 0.000000 0.000000
													}
												}
											}
										}
									}
									JOINT RightHandRing1
									{
										OFFSET 0.086752 8.921708 -2.267442
										CHANNELS 3 Zrotation Yrotation Xrotation
										JOINT RightHandRing2
										{
											OFFSET -0.000000 4.061090 0.000000
											CHANNELS 3 Zrotation Yrotation Xrotation
											JOINT RightHandRing3
											{
												OFFSET 0.000000 3.654981 -0.000000
												CHANNELS 3 Zrotation Yrotation Xrotation
												JOINT RightHandRing4
												{
													OFFSET 0.000000 2.741236 -0.000000
													CHANNELS 3 Zrotation Yrotation Xrotation
													End Site
													{
														OFFSET 0.000000 0.000000 0.000000
													}
												}
											}
										}
									}
									JOINT RightHandPinky1
									{
										OFFSET -0.173504 7.976997 -4.467199
										CHANNELS 3 Zrotation Yrotation Xrotation
										JOINT RightHandPinky2
										{
											OFFSET 0.000000 3.350399 -0.000000
											CHANNELS 3 Zrotation Yrotation Xrotation
											JOINT RightHandPinky3
											{
												OFFSET -0.000000 2.842763 0.000000
												CHANNELS 3 Zrotation Yrotation Xrotation
												JOINT RightHandPinky4
												{
													OFFSET -0.000000 2.639709 0.000000
													CHANNELS 3 Zrotation Yrotation Xrotation
													End Site
													{
														OFFSET 0.000000 0.000000 0.000000
													}
												}
											}
										}
									}
									JOINT RightForeArmEnd
									{
										OFFSET 0.000000 0.000000 0.000000
										CHANNELS 3 Zrotation Yrotation Xrotation
										End Site
										{
											OFFSET 0.000000 0.000000 0.000000
										}
									}
								}
								JOINT RightArmEnd
								{
									OFFSET 0.000000 0.000000 0.000000
									CHANNELS 3 Zrotation Yrotation Xrotation
									End Site
									{
										OFFSET 0.000000 0.000000 0.000000
									}
								}
							}
						}
					}
					JOINT LeftShoulder
					{
						OFFSET 2.625389 11.175210 0.000000
						CHANNELS 3 Zrotation Yrotation Xrotation
						JOINT LeftArm
						{
							OFFSET 0.000000 10.813635 -0.000000
							CHANNELS 3 Zrotation Yrotation Xrotation
							JOINT LeftForeArm
							{
								OFFSET 0.000000 28.724781 0.000000
								CHANNELS 3 Zrotation Yrotation Xrotation
								JOINT LeftHand
								{
									OFFSET 0.644384 25.716167 -0.328871
									CHANNELS 3 Zrotation Yrotation Xrotation
									JOINT LeftHandThumb1
									{
										OFFSET 2.867323 3.959563 2.944291
										CHANNELS 3 Zrotation Yrotation Xrotation
										JOINT LeftHandThumb2
										{
											OFFSET 0.000000 3.350399 0.000000
											CHANNELS 3 Zrotation Yrotation Xrotation
											JOINT LeftHandThumb3
											{
												OFFSET -0.000000 3.756509 0.000000
												CHANNELS 3 Zrotation Yrotation Xrotation
												JOINT LeftHandThumb4
												{
													OFFSET -0.000000 3.100000 0.000000
													CHANNELS 3 Zrotation Yrotation Xrotation
													End Site
													{
														OFFSET 0.000000 0.000000 0.000000
													}
												}
											}
										}
									}
									JOINT LeftHandIndex1
									{
										OFFSET 0.086752 10.030893 2.345280
										CHANNELS 3 Zrotation Yrotation Xrotation
										JOINT LeftHandIndex2
										{
											OFFSET -0.000000 4.061090 -0.000000
											CHANNELS 3 Zrotation Yrotation Xrotation
											JOINT LeftHandIndex3
											{
												OFFSET 0.000000 3.248873 -0.000000
												CHANNELS 3 Zrotation Yrotation Xrotation
												JOINT LeftHandIndex4
												{
													OFFSET 0.000000 2.639709 -0.000000
													CHANNELS 3 Zrotation Yrotation Xrotation
													End Site
													{
														OFFSET 0.000000 0.000000 0.000000
													}
												}
											}
										}
									}
									JOINT LeftHandMiddle1
									{
										OFFSET -0.104102 9.502952 0.006768
										CHANNELS 3 Zrotation Yrotation Xrotation
										JOINT LeftHandMiddle2
										{
											OFFSET -0.000000 4.568727 -0.000000
											CHANNELS 3 Zrotation Yrotation Xrotation
											JOINT LeftHandMiddle3
											{
												OFFSET 0.000000 3.654981 0.000000
												CHANNELS 3 Zrotation Yrotation Xrotation
												JOINT LeftHandMiddle4
												{
													OFFSET 0.000000 2.741236 -0.000000
													CHANNELS 3 Zrotation Yrotation Xrotation
													End Site
													{
														OFFSET 0.000000 0.000000 0.000000
													}
												}
											}
										}
									}
									JOINT LeftHandRing1
									{
										OFFSET -0.086752 8.921708 -2.267442
										CHANNELS 3 Zrotation Yrotation Xrotation
										JOINT LeftHandRing2
										{
											OFFSET 0.000000 4.061090 0.000000
											CHANNELS 3 Zrotation Yrotation Xrotation
											JOINT LeftHandRing3
											{
												OFFSET 0.000000 3.654981 0.000000
												CHANNELS 3 Zrotation Yrotation Xrotation
												JOINT LeftHandRing4
												{
													OFFSET 0.000000 2.741236 0.000000
													CHANNELS 3 Zrotation Yrotation Xrotation
													End Site
													{
														OFFSET 0.000000 0.000000 0.000000
													}
												}
											}
										}
									}
									JOINT LeftHandPinky1
									{
										OFFSET 0.173504 7.976997 -4.467199
										CHANNELS 3 Zrotation Yrotation Xrotation
										JOINT LeftHandPinky2
										{
											OFFSET -0.000000 3.350399 -0.000000
											CHANNELS 3 Zrotation Yrotation Xrotation
											JOINT LeftHandPinky3
											{
												OFFSET 0.000000 2.842763 0.000000
												CHANNELS 3 Zrotation Yrotation Xrotation
												JOINT LeftHandPinky4
												{
													OFFSET -0.000000 2.639709 -0.000000
													CHANNELS 3 Zrotation Yrotation Xrotation
													End Site
													{
														OFFSET 0.000000 0.000000 0.000000
													}
												}
											}
										}
									}
									JOINT LeftForeArmEnd
									{
										OFFSET 0.000000 0.000000 0.000000
										CHANNELS 3 Zrotation Yrotation Xrotation
										End Site
										{
											OFFSET 0.000000 0.000000 0.000000
										}
									}
								}
								JOINT LeftArmEnd
								{
									OFFSET 0.000000 0.000000 0.000000
									CHANNELS 3 Zrotation Yrotation Xrotation
									End Site
									{
										OFFSET 0.000000 0.000000 0.000000
									}
								}
							}
						}
					}
				}
			}
		}
	}
	JOINT RightUpLeg
	{
		OFFSET -11.289943 0.000000 0.000000
		CHANNELS 3 Zrotation Yrotation Xrotation
		JOINT RightLeg
		{
			OFFSET 0.000000 -38.200325 0.000000
			CHANNELS 3 Zrotation Yrotation Xrotation
			JOINT RightFoot
			{
				OFFSET -0.000000 -39.900856 -0.000000
				CHANNELS 3 Zrotation Yrotation Xrotation
				JOINT RightToeBase
				{
					OFFSET 0.000000 0.000000 15.261641
					CHANNELS 3 Zrotation Yrotation Xrotation
					JOINT RightToeBaseEnd
					{
						OFFSET 0.000000 0.000000 7.370709
						CHANNELS 3 Zrotation Yrotation Xrotation
						End Site
						{
							OFFSET 0.000000 0.000000 0.000000
						}
					}
				}
				JOINT RightLegEnd
				{
					OFFSET 0.000000 0.000000 0.000000
					CHANNELS 3 Zrotation Yrotation Xrotation
					End Site
					{
						OFFSET 0.000000 0.000000 0.000000
					}
				}
			}
			JOINT RightUpLegEnd
			{
				OFFSET 0.000000 0.000000 0.000000
				CHANNELS 3 Zrotation Yrotation Xrotation
				End Site
				{
					OFFSET 0.000000 0.000000 0.000000
				}
			}
		}
	}
	JOINT LeftUpLeg
	{
		OFFSET 11.315661 -0.000000 0.000000
		CHANNELS 3 Zrotation Yrotation Xrotation
		JOINT LeftLeg
		{
			OFFSET -0.000000 -38.200325 -0.000000
			CHANNELS 3 Zrotation Yrotation Xrotation
			JOINT LeftFoot
			{
				OFFSET 0.000000 -39.900856 -0.000000
				CHANNELS 3 Zrotation Yrotation Xrotation
				JOINT LeftToeBase
				{
					OFFSET -0.000000 -0.000000 15.261641
					CHANNELS 3 Zrotation Yrotation Xrotation
					JOINT LeftToeBaseEnd
					{
						OFFSET 0.000000 -0.000000 7.539996
						CHANNELS 3 Zrotation Yrotation Xrotation
						End Site
						{
							OFFSET 0.000000 0.000000 0.000000
						}
					}
				}
				JOINT LeftLegEnd
				{
					OFFSET 0.000000 0.000000 0.000000
					CHANNELS 3 Zrotation Yrotation Xrotation
					End Site
					{
						OFFSET 0.000000 0.000000 0.000000
					}
				}
			}
			JOINT LeftUpLegEnd
			{
				OFFSET 0.000000 0.000000 0.000000
				CHANNELS 3 Zrotation Yrotation Xrotation
				End Site
				{
					OFFSET 0.000000 0.000000 0.000000
				}
			}
		}
	}
}
MOTION
Frames: 4
Frame Time: 0.016667
0.089964 88.845993 3.059727 0.148312 -0.417939 -10.641654 0.809573 -0.012187 7.033538 -0.654152 0.305910 3.173217 -0.190737 -0.477250 4.542552 -1.267406 0.279459 5.092100 2.658915 -0.019809 5.509295 0.492479 1.034459 -2.996901 -0.127699 -0.678329 -20.019501 0.000000 0.000000 0.000000 91.733086 -0.239807 9.621647 70.090546 -22.791733 2.285566 0.305883 17.407377 30.971201 -11.913812 1.005369 -6.239945 15.333583 31.754442 66.770752 -2.984065 -3.484047 -6.527841 -2.084784 -2.286036 -4.379393 0.000000 0.000000 0.000000 -24.659216 -4.630106 12.138910 0.726123 0.524095 0.444037 0.496227 0.079225 0.468425 0.000000 0.000000 0.000000 -23.643400 0.650028 7.124874 -0.079146 0.525576 0.139499 0.342889 0.019672 0.136341 0.000000 0.000000 0.000000 -21.701696 8.168123 1.070580 0.342257 -1.016450 -0.313436 0.254006 -0.036998 -0.192543 0.000000 0.000000 0.000000 -20.007446 16.019314 -5.431190 0.669787 -1.996342 -0.899961 0.580716 -0.018904 -0.741427 0.000000 0.000000 0.000000 0.000000 0.000000 0.000000 0.000000 0.000000 0.000000 -89.727516 0.051944 5.150717 -71.236961 15.730886 -6.163112 -0.036165 -11.883743 58.988037 20.228859 3.039065 -10.649383 -14.210027 -32.151314 67.911667 1.662884 1.164581 -2.847196 1.034498 0.848033 -2.002564 0.000000 0.000000 0.000000 28.286270 -13.567635 18.369984 -0.348223 0.557875 -0.317838 -0.322340 0.091698 -0.338029 0.000000 0.000000 0.000000 27.381636 -8.209104 11.864559 -0.365948 0.529335 -0.153330 -0.497987 0.040751 -0.119479 0.000000 0.000000 0.000000 24.476774 0.187257 3.759729 -1.533723 -1.046863 0.320278 -1.698205 -0.042794 0.243124 0.000000 0.000000 0.000000 19.083879 10.102136 -4.658242 -2.894548 -2.011574 1.129243 -2.657836 0.014438 1.012487 0.000000 0.000000 0.000000 0.000000 0.000000 0.000000 0.000000 0.000000 0.000000 -0.796416 -9.309690 14.860000 -0.077209 -0.733297 4.718685 -2.977032 -7.736038 17.266020 -0.856666 0.809916 -18.649580 0.000000 0.000000 0.000000 0.000000 0.000000 0.000000 0.000000 0.000000 0.000000 -1.400395 -5.542405 9.827091 0.068183 0.356992 9.518147 3.578183 -1.145956 17.111717 0.292752 -0.480663 -20.674868 0.000000 0.000000 0.000000 0.000000 0.000000 0.000000 0.000000 0.000000 0.000000 
0.096671 88.847069 3.076555 0.161664 -0.453165 -10.671086 0.810605 -0.012958 7.040370 -0.670323 0.309247 3.186887 -0.190801 -0.492250 4.560565 -1.273029 0.269909 5.091049 2.647269 0.003531 5.479262 0.508545 1.062025 -3.015731 -0.135002 -0.691459 -19.977667 0.000000 0.000000 0.000000 91.742355 -0.249773 9.612402 70.037987 -22.716219 2.232725 0.311993 17.486269 31.128527 -12.024106 1.107605 -6.177408 15.344911 31.749228 66.759911 -3.004285 -3.505761 -6.569555 -2.099589 -2.300873 -4.407168 0.000000 0.000000 0.000000 -24.549858 -4.641837 12.125396 0.710898 0.524891 0.439407 0.480582 0.079975 0.464761 0.000000 0.000000 0.000000 -23.504551 0.631589 7.131740 -0.093063 0.526818 0.136591 0.338383 0.020844 0.134143 0.000000 0.000000 0.000000 -21.504465 8.139993 1.104475 0.351998 -1.017638 -0.310093 0.258183 -0.037757 -0.189156 0.000000 0.000000 0.000000 -19.781328 15.996491 -5.383207 0.698341 -1.996956 -0.889212 0.605426 -0.020796 -0.728786 0.000000 0.000000 0.000000 0.000000 0.000000 0.000000 0.000000 0.000000 0.000000 -89.738548 0.062703 5.135042 -71.219734 15.623845 -6.249815 -0.070658 -11.889806 59.173492 20.414206 2.787836 -10.479682 -14.234443 -32.143795 67.892174 1.692902 1.209180 -2.916600 1.057406 0.876897 -2.050714 0.000000 0.000000 0.000000 28.154442 -13.546160 18.351713 -0.328339 0.557244 -0.315420 -0.309184 0.091072 -0.334797 0.000000 0.000000 0.000000 27.233606 -8.189002 11.863779 -0.357337 0.529335 -0.151490 -0.484766 0.040858 -0.117886 0.000000 0.000000 0.000000 24.266672 0.218007 3.776343 -1.536471 -1.047197 0.319580 -1.698284 -0.043003 0.241794 0.000000 0.000000 0.000000 18.826334 10.142102 -4.630569 -2.925649 -2.010348 1.126584 -2.683837 0.015821 1.008609 0.000000 0.000000 0.000000 0.000000 0.000000 0.000000 0.000000 0.000000 0.000000 -0.823836 -9.302292 14.876460 -0.077164 -0.735687 4.725656 -2.952914 -7.708020 17.261778 -0.859847 0.814009 -18.641890 0.000000 0.000000 0.000000 0.000000 0.000000 0.000000 0.000000 0.000000 0.000000 -1.417408 -5.502685 9.865517 0.068017 0.355916 9.519183 3.577644 -1.110838 17.084757 0.288701 -0.481052 -20.675880 0.000000 0.000000 0.000000 0.000000 0.000000 0.000000 0.000000 0.000000 0.000000 
0.105074 88.848366 3.094502 0.175398 -0.488584 -10.702427 0.810360 -0.013599 7.048597 -0.684947 0.312532 3.200222 -0.190288 -0.507158 4.578665 -1.277517 0.259510 5.088792 2.639945 0.026727 5.442928 0.524206 1.089305 -3.038940 -0.142810 -0.704658 -19.936398 0.000000 0.000000 0.000000 91.755386 -0.259096 9.606137 69.987236 -22.651503 2.182155 0.317625 17.556488 31.291195 -12.116468 1.215310 -6.115946 15.361399 31.742292 66.743813 -3.030085 -3.537576 -6.626370 -2.118975 -2.322595 -4.445890 0.000000 0.000000 0.000000 -24.396629 -4.662275 12.104452 0.698209 0.525960 0.434231 0.466982 0.081021 0.460773 0.000000 0.000000 0.000000 -23.324215 0.605911 7.132030 -0.104402 0.528121 0.133751 0.335057 0.022067 0.131959 0.000000 0.000000 0.000000 -21.272696 8.106459 1.133817 0.361535 -1.018903 -0.306920 0.262139 -0.038538 -0.186008 0.000000 0.000000 0.000000 -19.525774 15.969522 -5.336534 0.726533 -1.997743 -0.879445 0.628754 -0.022800 -0.717063 0.000000 0.000000 0.000000 0.000000 0.000000 0.000000 0.000000 0.000000 0.000000 -89.750839 0.073265 5.123377 -71.204948 15.525386 -6.338585 -0.102502 -11.898310 59.375057 20.564379 2.525311 -10.310269 -14.261470 -32.135170 67.869545 1.726403 1.259838 -2.994595 1.082979 0.909768 -2.105303 0.000000 0.000000 0.000000 27.992496 -13.520015 18.324821 -0.305348 0.556805 -0.312059 -0.293630 0.090642 -0.330783 0.000000 0.000000 0.000000 27.056669 -8.164326 11.855162 -0.346180 0.529333 -0.149336 -0.469381 0.040967 -0.116135 0.000000 0.000000 0.000000 24.029942 0.253604 3.785983 -1.537860 -1.047449 0.318624 -1.696059 -0.043148 0.240342 0.000000 0.000000 0.000000 18.544479 10.186427 -4.608831 -2.956254 -2.009008 1.123827 -2.710205 0.017083 1.004821 0.000000 0.000000 0.000000 0.000000 0.000000 0.000000 0.000000 0.000000 0.000000 -0.855023 -9.290614 14.897009 -0.077298 -0.738292 4.736816 -2.927518 -7.680771 17.255701 -0.863149 0.818060 -18.636442 0.000000 0.000000 0.000000 0.000000 0.000000 0.000000 0.000000 0.000000 0.000000 -1.436755 -5.465528 9.906428 0.067820 0.354499 9.520850 3.580487 -1.073048 17.058630 0.284600 -0.481455 -20.676735 0.000000 0.000000 0.000000 0.000000 0.000000 0.000000 0.000000 0.000000 0.000000 
0.115131 88.849808 3.113052 0.189308 -0.523865 -10.734221 0.808841 -0.014044 7.057676 -0.698773 0.315892 3.212620 -0.189025 -0.521921 4.597034 -1.280449 0.248738 5.085620 2.639838 0.047028 5.403488 0.539101 1.114596 -3.064800 -0.150501 -0.717718 -19.895554 0.000000 0.000000 0.000000 91.773827 -0.268684 9.603375 69.935295 -22.596102 2.136970 0.322962 17.621666 31.456213 -12.192165 1.333709 -6.061855 15.382937 31.733686 66.722198 -3.061455 -3.579420 -6.698516 -2.142917 -2.351186 -4.495522 0.000000 0.000000 0.000000 -24.202353 -4.690728 12.076448 0.687404 0.527169 0.428874 0.454840 0.082247 0.456831 0.000000 0.000000 0.000000 -23.105129 0.573488 7.126317 -0.113676 0.529429 0.131108 0.332565 0.023281 0.129915 0.000000 0.000000 0.000000 -21.009066 8.067800 1.159785 0.370653 -1.020204 -0.304080 0.265543 -0.039305 -0.183224 0.000000 0.000000 0.000000 -19.243298 15.938464 -5.290056 0.754103 -1.998689 -0.870873 0.650505 -0.024887 -0.706560 0.000000 0.000000 0.000000 0.000000 0.000000 0.000000 0.000000 0.000000 0.000000 -89.764931 0.083454 5.115754 -71.190071 15.431479 -6.425189 -0.132073 -11.910213 59.590385 20.678263 2.245821 -10.151262 -14.290568 -32.125580 67.844162 1.762955 1.315487 -3.080038 1.110750 0.945807 -2.165398 0.000000 0.000000 0.000000 27.804955 -13.489504 18.289486 -0.279852 0.556455 -0.308357 -0.275984 0.090320 -0.326540 0.000000 0.000000 0.000000 26.854298 -8.135517 11.839416 -0.332792 0.529302 -0.147077 -0.452230 0.041044 -0.114412 0.000000 0.000000 0.000000 23.769611 0.293514 3.789695 -1.538241 -1.047595 0.317566 -1.691829 -0.043210 0.238907 0.000000 0.000000 0.000000 18.240816 10.234396 -4.592189 -2.986521 -2.007508 1.121072 -2.736766 0.018236 1.001238 0.000000 0.000000 0.000000 0.000000 0.000000 0.000000 0.000000 0.000000 0.000000 -0.889627 -9.276537 14.919975 -0.077586 -0.741152 4.751029 -2.901468 -7.654750 17.248360 -0.866321 0.822038 -18.633114 0.000000 0.000000 0.000000 0.000000 0.000000 0.000000 0.000000 0.000000 0.000000 -1.457350 -5.430187 9.947896 0.067609 0.352899 9.521993 3.586827 -1.033495 17.034697 0.280575 -0.481814 -20.678059 0.000000 0.000000 0.000000 0.000000 0.000000 0.000000 0.000000 0.000000 0.000000 
